<?xml version="1.0" encoding="UTF-8" standalone="no"?>
<!DOCTYPE svg PUBLIC "-//W3C//DTD SVG 1.1//EN"
 "http://www.w3.org/Graphics/SVG/1.1/DTD/svg11.dtd">
<!-- Generated by graphviz version 2.43.0 (0)
 -->
<!-- Title: %3 Pages: 1 -->
<svg width="862pt" height="428pt"
 viewBox="0.00 0.00 862.00 428.00" xmlns="http://www.w3.org/2000/svg" xmlns:xlink="http://www.w3.org/1999/xlink">
<g id="graph0" class="graph" transform="scale(1 1) rotate(0) translate(4 424)">
<title>%3</title>
<polygon fill="white" stroke="transparent" points="-4,4 -4,-424 858,-424 858,4 -4,4"/>
<!-- node0x604000000190 -->
<g id="node1" class="node">
<title>node0x604000000190</title>
<path fill="none" stroke="black" d="M263,-304.5C263,-304.5 603,-304.5 603,-304.5 609,-304.5 615,-310.5 615,-316.5 615,-316.5 615,-407.5 615,-407.5 615,-413.5 609,-419.5 603,-419.5 603,-419.5 263,-419.5 263,-419.5 257,-419.5 251,-413.5 251,-407.5 251,-407.5 251,-316.5 251,-316.5 251,-310.5 257,-304.5 263,-304.5"/>
<text text-anchor="middle" x="433" y="-404.3" font-family="Times,serif" font-size="14.00">node[0x604000000190]</text>
<polyline fill="none" stroke="black" points="251,-396.5 615,-396.5 "/>
<text text-anchor="middle" x="433" y="-381.3" font-family="Times,serif" font-size="14.00">parent[(nil)]</text>
<polyline fill="none" stroke="black" points="251,-373.5 615,-373.5 "/>
<text text-anchor="middle" x="433" y="-358.3" font-family="Times,serif" font-size="14.00">TYPE = OPR(0)</text>
<polyline fill="none" stroke="black" points="251,-350.5 615,-350.5 "/>
<text text-anchor="middle" x="433" y="-335.3" font-family="Times,serif" font-size="14.00">OP = +</text>
<polyline fill="none" stroke="black" points="251,-327.5 615,-327.5 "/>
<text text-anchor="middle" x="339" y="-312.3" font-family="Times,serif" font-size="14.00">left[0x604000000150]</text>
<polyline fill="none" stroke="black" points="427,-304.5 427,-327.5 "/>
<text text-anchor="middle" x="521" y="-312.3" font-family="Times,serif" font-size="14.00">right[0x604000000090]</text>
</g>
<!-- node0x604000000150 -->
<g id="node2" class="node">
<title>node0x604000000150</title>
<path fill="none" stroke="black" d="M60,-152.5C60,-152.5 400,-152.5 400,-152.5 406,-152.5 412,-158.5 412,-164.5 412,-164.5 412,-255.5 412,-255.5 412,-261.5 406,-267.5 400,-267.5 400,-267.5 60,-267.5 60,-267.5 54,-267.5 48,-261.5 48,-255.5 48,-255.5 48,-164.5 48,-164.5 48,-158.5 54,-152.5 60,-152.5"/>
<text text-anchor="middle" x="230" y="-252.3" font-family="Times,serif" font-size="14.00">node[0x604000000150]</text>
<polyline fill="none" stroke="black" points="48,-244.5 412,-244.5 "/>
<text text-anchor="middle" x="230" y="-229.3" font-family="Times,serif" font-size="14.00">parent[0x604000000190]</text>
<polyline fill="none" stroke="black" points="48,-221.5 412,-221.5 "/>
<text text-anchor="middle" x="230" y="-206.3" font-family="Times,serif" font-size="14.00">TYPE = OPR(0)</text>
<polyline fill="none" stroke="black" points="48,-198.5 412,-198.5 "/>
<text text-anchor="middle" x="230" y="-183.3" font-family="Times,serif" font-size="14.00">OP = *</text>
<polyline fill="none" stroke="black" points="48,-175.5 412,-175.5 "/>
<text text-anchor="middle" x="136" y="-160.3" font-family="Times,serif" font-size="14.00">left[0x604000000110]</text>
<polyline fill="none" stroke="black" points="224,-152.5 224,-175.5 "/>
<text text-anchor="middle" x="318" y="-160.3" font-family="Times,serif" font-size="14.00">right[0x6040000000d0]</text>
</g>
<!-- node0x604000000190&#45;&gt;node0x604000000150 -->
<g id="edge1" class="edge">
<title>node0x604000000190:left&#45;&gt;node0x604000000150</title>
<path fill="none" stroke="black" d="M250,-316C250,-316 246.67,-298.52 242.73,-277.82"/>
<polygon fill="black" stroke="black" points="246.13,-276.97 240.82,-267.8 239.25,-278.28 246.13,-276.97"/>
</g>
<!-- node0x604000000090 -->
<g id="node5" class="node">
<title>node0x604000000090</title>
<path fill="none" stroke="black" d="M460,-152.5C460,-152.5 800,-152.5 800,-152.5 806,-152.5 812,-158.5 812,-164.5 812,-164.5 812,-255.5 812,-255.5 812,-261.5 806,-267.5 800,-267.5 800,-267.5 460,-267.5 460,-267.5 454,-267.5 448,-261.5 448,-255.5 448,-255.5 448,-164.5 448,-164.5 448,-158.5 454,-152.5 460,-152.5"/>
<text text-anchor="middle" x="630" y="-252.3" font-family="Times,serif" font-size="14.00">node[0x604000000090]</text>
<polyline fill="none" stroke="black" points="448,-244.5 812,-244.5 "/>
<text text-anchor="middle" x="630" y="-229.3" font-family="Times,serif" font-size="14.00">parent[0x604000000190]</text>
<polyline fill="none" stroke="black" points="448,-221.5 812,-221.5 "/>
<text text-anchor="middle" x="630" y="-206.3" font-family="Times,serif" font-size="14.00">TYPE = OPR(0)</text>
<polyline fill="none" stroke="black" points="448,-198.5 812,-198.5 "/>
<text text-anchor="middle" x="630" y="-183.3" font-family="Times,serif" font-size="14.00">OP = &#45;</text>
<polyline fill="none" stroke="black" points="448,-175.5 812,-175.5 "/>
<text text-anchor="middle" x="536" y="-160.3" font-family="Times,serif" font-size="14.00">left[0x604000000050]</text>
<polyline fill="none" stroke="black" points="624,-152.5 624,-175.5 "/>
<text text-anchor="middle" x="718" y="-160.3" font-family="Times,serif" font-size="14.00">right[0x604000000010]</text>
</g>
<!-- node0x604000000190&#45;&gt;node0x604000000090 -->
<g id="edge4" class="edge">
<title>node0x604000000190:right&#45;&gt;node0x604000000090</title>
<path fill="none" stroke="black" d="M616,-316C616,-316 618.33,-298.52 621.09,-277.82"/>
<polygon fill="black" stroke="black" points="624.57,-278.18 622.43,-267.8 617.64,-277.25 624.57,-278.18"/>
</g>
<!-- node0x604000000110 -->
<g id="node3" class="node">
<title>node0x604000000110</title>
<path fill="none" stroke="black" d="M12,-0.5C12,-0.5 188,-0.5 188,-0.5 194,-0.5 200,-6.5 200,-12.5 200,-12.5 200,-103.5 200,-103.5 200,-109.5 194,-115.5 188,-115.5 188,-115.5 12,-115.5 12,-115.5 6,-115.5 0,-109.5 0,-103.5 0,-103.5 0,-12.5 0,-12.5 0,-6.5 6,-0.5 12,-0.5"/>
<text text-anchor="middle" x="100" y="-100.3" font-family="Times,serif" font-size="14.00">node[0x604000000110]</text>
<polyline fill="none" stroke="black" points="0,-92.5 200,-92.5 "/>
<text text-anchor="middle" x="100" y="-77.3" font-family="Times,serif" font-size="14.00">parent[0x604000000150]</text>
<polyline fill="none" stroke="black" points="0,-69.5 200,-69.5 "/>
<text text-anchor="middle" x="100" y="-54.3" font-family="Times,serif" font-size="14.00">TYPE = OPR(2)</text>
<polyline fill="none" stroke="black" points="0,-46.5 200,-46.5 "/>
<text text-anchor="middle" x="100" y="-31.3" font-family="Times,serif" font-size="14.00">OP = 5</text>
<polyline fill="none" stroke="black" points="0,-23.5 200,-23.5 "/>
<text text-anchor="middle" x="47" y="-8.3" font-family="Times,serif" font-size="14.00">left[(nil)]</text>
<polyline fill="none" stroke="black" points="94,-0.5 94,-23.5 "/>
<text text-anchor="middle" x="147" y="-8.3" font-family="Times,serif" font-size="14.00">right[(nil)]</text>
</g>
<!-- node0x604000000150&#45;&gt;node0x604000000110 -->
<g id="edge2" class="edge">
<title>node0x604000000150:left&#45;&gt;node0x604000000110</title>
<path fill="none" stroke="black" d="M136,-152C136,-152 131.48,-140.33 125.65,-125.26"/>
<polygon fill="black" stroke="black" points="128.75,-123.57 121.88,-115.51 122.22,-126.1 128.75,-123.57"/>
</g>
<!-- node0x6040000000d0 -->
<g id="node4" class="node">
<title>node0x6040000000d0</title>
<path fill="none" stroke="black" d="M230,-0.5C230,-0.5 406,-0.5 406,-0.5 412,-0.5 418,-6.5 418,-12.5 418,-12.5 418,-103.5 418,-103.5 418,-109.5 412,-115.5 406,-115.5 406,-115.5 230,-115.5 230,-115.5 224,-115.5 218,-109.5 218,-103.5 218,-103.5 218,-12.5 218,-12.5 218,-6.5 224,-0.5 230,-0.5"/>
<text text-anchor="middle" x="318" y="-100.3" font-family="Times,serif" font-size="14.00">node[0x6040000000d0]</text>
<polyline fill="none" stroke="black" points="218,-92.5 418,-92.5 "/>
<text text-anchor="middle" x="318" y="-77.3" font-family="Times,serif" font-size="14.00">parent[0x604000000150]</text>
<polyline fill="none" stroke="black" points="218,-69.5 418,-69.5 "/>
<text text-anchor="middle" x="318" y="-54.3" font-family="Times,serif" font-size="14.00">TYPE = VAR(1)</text>
<polyline fill="none" stroke="black" points="218,-46.5 418,-46.5 "/>
<text text-anchor="middle" x="318" y="-31.3" font-family="Times,serif" font-size="14.00">VAR = x</text>
<polyline fill="none" stroke="black" points="218,-23.5 418,-23.5 "/>
<text text-anchor="middle" x="265" y="-8.3" font-family="Times,serif" font-size="14.00">left[(nil)]</text>
<polyline fill="none" stroke="black" points="312,-0.5 312,-23.5 "/>
<text text-anchor="middle" x="365" y="-8.3" font-family="Times,serif" font-size="14.00">right[(nil)]</text>
</g>
<!-- node0x604000000150&#45;&gt;node0x6040000000d0 -->
<g id="edge3" class="edge">
<title>node0x604000000150:right&#45;&gt;node0x6040000000d0</title>
<path fill="none" stroke="black" d="M318,-152C318,-152 318,-140.55 318,-125.69"/>
<polygon fill="black" stroke="black" points="321.5,-125.51 318,-115.51 314.5,-125.51 321.5,-125.51"/>
</g>
<!-- node0x604000000050 -->
<g id="node6" class="node">
<title>node0x604000000050</title>
<path fill="none" stroke="black" d="M448,-0.5C448,-0.5 624,-0.5 624,-0.5 630,-0.5 636,-6.5 636,-12.5 636,-12.5 636,-103.5 636,-103.5 636,-109.5 630,-115.5 624,-115.5 624,-115.5 448,-115.5 448,-115.5 442,-115.5 436,-109.5 436,-103.5 436,-103.5 436,-12.5 436,-12.5 436,-6.5 442,-0.5 448,-0.5"/>
<text text-anchor="middle" x="536" y="-100.3" font-family="Times,serif" font-size="14.00">node[0x604000000050]</text>
<polyline fill="none" stroke="black" points="436,-92.5 636,-92.5 "/>
<text text-anchor="middle" x="536" y="-77.3" font-family="Times,serif" font-size="14.00">parent[0x604000000090]</text>
<polyline fill="none" stroke="black" points="436,-69.5 636,-69.5 "/>
<text text-anchor="middle" x="536" y="-54.3" font-family="Times,serif" font-size="14.00">TYPE = OPR(2)</text>
<polyline fill="none" stroke="black" points="436,-46.5 636,-46.5 "/>
<text text-anchor="middle" x="536" y="-31.3" font-family="Times,serif" font-size="14.00">OP = 12</text>
<polyline fill="none" stroke="black" points="436,-23.5 636,-23.5 "/>
<text text-anchor="middle" x="483" y="-8.3" font-family="Times,serif" font-size="14.00">left[(nil)]</text>
<polyline fill="none" stroke="black" points="530,-0.5 530,-23.5 "/>
<text text-anchor="middle" x="583" y="-8.3" font-family="Times,serif" font-size="14.00">right[(nil)]</text>
</g>
<!-- node0x604000000090&#45;&gt;node0x604000000050 -->
<g id="edge5" class="edge">
<title>node0x604000000090:left&#45;&gt;node0x604000000050</title>
<path fill="none" stroke="black" d="M536,-152C536,-152 536,-140.55 536,-125.69"/>
<polygon fill="black" stroke="black" points="539.5,-125.51 536,-115.51 532.5,-125.51 539.5,-125.51"/>
</g>
<!-- node0x604000000010 -->
<g id="node7" class="node">
<title>node0x604000000010</title>
<path fill="none" stroke="black" d="M666,-0.5C666,-0.5 842,-0.5 842,-0.5 848,-0.5 854,-6.5 854,-12.5 854,-12.5 854,-103.5 854,-103.5 854,-109.5 848,-115.5 842,-115.5 842,-115.5 666,-115.5 666,-115.5 660,-115.5 654,-109.5 654,-103.5 654,-103.5 654,-12.5 654,-12.5 654,-6.5 660,-0.5 666,-0.5"/>
<text text-anchor="middle" x="754" y="-100.3" font-family="Times,serif" font-size="14.00">node[0x604000000010]</text>
<polyline fill="none" stroke="black" points="654,-92.5 854,-92.5 "/>
<text text-anchor="middle" x="754" y="-77.3" font-family="Times,serif" font-size="14.00">parent[0x604000000090]</text>
<polyline fill="none" stroke="black" points="654,-69.5 854,-69.5 "/>
<text text-anchor="middle" x="754" y="-54.3" font-family="Times,serif" font-size="14.00">TYPE = OPR(2)</text>
<polyline fill="none" stroke="black" points="654,-46.5 854,-46.5 "/>
<text text-anchor="middle" x="754" y="-31.3" font-family="Times,serif" font-size="14.00">OP = 7</text>
<polyline fill="none" stroke="black" points="654,-23.5 854,-23.5 "/>
<text text-anchor="middle" x="701" y="-8.3" font-family="Times,serif" font-size="14.00">left[(nil)]</text>
<polyline fill="none" stroke="black" points="748,-0.5 748,-23.5 "/>
<text text-anchor="middle" x="801" y="-8.3" font-family="Times,serif" font-size="14.00">right[(nil)]</text>
</g>
<!-- node0x604000000090&#45;&gt;node0x604000000010 -->
<g id="edge6" class="edge">
<title>node0x604000000090:right&#45;&gt;node0x604000000010</title>
<path fill="none" stroke="black" d="M718,-152C718,-152 722.52,-140.33 728.35,-125.26"/>
<polygon fill="black" stroke="black" points="731.78,-126.1 732.12,-115.51 725.25,-123.57 731.78,-126.1"/>
</g>
</g>
</svg>
